HIERARCHY
ROOT Hips
{
	OFFSET 0.000000 0.000000 0.000000
	CHANNELS 6 Xposition Yposition Zposition Zrotation Yrotation Xrotation 
	JOINT LowerBack
	{
		OFFSET 0.000000 0.000000 0.000000
		CHANNELS 3 Zrotation Yrotation Xrotation
		JOINT Spine
		{
			OFFSET 0.028270 2.035590 -0.193380
			CHANNELS 3 Zrotation Yrotation Xrotation
			JOINT Spine1
			{
				OFFSET 0.056720 2.048850 -0.042750
				CHANNELS 3 Zrotation Yrotation Xrotation
				JOINT Neck
				{
					OFFSET 0.000000 0.000000 0.000000
					CHANNELS 3 Zrotation Yrotation Xrotation
					JOINT Neck1
					{
						OFFSET -0.054170 1.746240 0.172020
						CHANNELS 3 Zrotation Yrotation Xrotation
						JOINT Head
						{
							OFFSET 0.104070 1.761360 -0.123970
							CHANNELS 3 Zrotation Yrotation Xrotation
							End Site
							{
								OFFSET 0.000000 0.000000 0.000000
							}
						}
					}
				}
				JOINT LeftShoulder
				{
					OFFSET 0.000000 0.000000 0.000000
					CHANNELS 3 Zrotation Yrotation Xrotation
					JOINT LeftArm
					{
						OFFSET 3.362410 1.200890 -0.311210
						CHANNELS 3 Zrotation Yrotation Xrotation
						JOINT LeftForeArm
						{
							OFFSET 4.983000 -0.000000 -0.000000
							CHANNELS 3 Zrotation Yrotation Xrotation
							JOINT LeftHand
							{
								OFFSET 3.483560 -0.000000 -0.000000
								CHANNELS 3 Zrotation Yrotation Xrotation
								JOINT LeftFingerBase
								{
									OFFSET 0.000000 0.000000 0.000000
									CHANNELS 3 Zrotation Yrotation Xrotation
									JOINT LeftHandIndex1
									{
										OFFSET 0.715260 -0.000000 -0.000000
										CHANNELS 3 Zrotation Yrotation Xrotation
										End Site
										{
											OFFSET 0.000000 0.000000 0.000000
										}
									}
								}
								JOINT LThumb
								{
									OFFSET 0.000000 0.000000 0.000000
									CHANNELS 3 Zrotation Yrotation Xrotation
									End Site
									{
										OFFSET 0.000000 0.000000 0.000000
									}
								}
							}
						}
					}
				}
				JOINT RightShoulder
				{
					OFFSET 0.000000 0.000000 0.000000
					CHANNELS 3 Zrotation Yrotation Xrotation
					JOINT RightArm
					{
						OFFSET -3.136600 1.374050 -0.404650
						CHANNELS 3 Zrotation Yrotation Xrotation
						JOINT RightForeArm
						{
							OFFSET -5.241900 -0.000000 -0.000000
							CHANNELS 3 Zrotation Yrotation Xrotation
							JOINT RightHand
							{
								OFFSET -3.444170 -0.000000 -0.000000
								CHANNELS 3 Zrotation Yrotation Xrotation
								JOINT RightFingerBase
								{
									OFFSET 0.000000 0.000000 0.000000
									CHANNELS 3 Zrotation Yrotation Xrotation
									JOINT RightHandIndex1
									{
										OFFSET -0.622530 -0.000000 -0.000000
										CHANNELS 3 Zrotation Yrotation Xrotation
										End Site
										{
											OFFSET 0.000000 0.000000 0.000000
										}
									}
								}
								JOINT RThumb
								{
									OFFSET 0.000000 0.000000 0.000000
									CHANNELS 3 Zrotation Yrotation Xrotation
									End Site
									{
										OFFSET 0.000000 0.000000 0.000000
									}
								}
							}
						}
					}
				}
			}
		}
	}
}
}
MOTION
Frames: 9
Frame Time: 0.008333
-6.221940 12.375760 1.638917 14.868900 -88.818561 41.471398 1.727270 -2.714303 -4.496933 -0.872643 -3.144077 -4.246896 -7.421586 -3.460248 -0.255339 13.455139 -5.647860 -13.749254 -4.492435 -0.258439 -2.536011 0.000000 0.000000 0.000000 -5.310875 4.754947 4.429312 -60.932635 1.255566 17.252992 -2.056167 -39.630150 -0.021531 6.763925 5.347567 0.314649 -0.100255 0.111519 -0.000000 0.000000 0.000000 0.000000 0.000000 0.000000 0.000000 25.671442 -3.325097 5.326180 65.801964 -4.449085 3.689011 2.975018 11.285638 0.002549 5.017364 -6.415308 -0.277261 0.025414 -0.058833 0.000000 0.000000 0.000000 0.000000 0.000000 0.000000 0.000000 
-6.357986 12.246236 1.627774 20.457703 -88.418105 36.571444 1.759915 -2.776809 -4.803557 -0.871082 -3.229415 -4.289456 -7.472216 -3.549647 -0.142969 13.623188 -5.882092 -13.944866 -4.515700 -0.259436 -2.596314 0.000000 0.000000 0.000000 -5.542931 4.948129 4.446575 -60.728583 1.643482 17.582534 -2.096774 -38.562078 -0.019937 6.024898 6.276264 0.330709 -0.093369 0.101028 -0.000000 0.000000 0.000000 0.000000 0.000000 0.000000 0.000000 26.031507 -3.659344 5.318953 65.642952 -5.169118 2.320531 2.901485 10.083079 0.000946 4.401415 -6.916114 -0.262288 0.027550 -0.053041 0.000000 0.000000 0.000000 0.000000 0.000000 0.000000 0.000000 
-6.494491 12.123666 1.616190 24.751122 -87.998751 32.955812 1.778343 -2.856233 -5.145674 -0.871277 -3.332680 -4.342763 -7.518286 -3.657131 -0.040285 13.765105 -6.061962 -14.120549 -4.540201 -0.260739 -2.650157 0.000000 0.000000 0.000000 -5.777165 5.104507 4.476400 -60.527990 2.043369 17.819942 -2.139553 -37.539743 -0.018553 5.234867 7.360355 0.338569 -0.086502 0.090646 -0.000000 0.000000 0.000000 0.000000 0.000000 0.000000 0.000000 26.349439 -3.937612 5.306385 65.528157 -5.797013 0.730886 2.813511 8.890286 -0.000387 3.704278 -7.180112 -0.228909 0.029795 -0.049232 0.000000 0.000000 0.000000 0.000000 0.000000 0.000000 0.000000 
-6.630679 12.009576 1.604263 28.040423 -87.584691 30.324031 1.782131 -2.940662 -5.507971 -0.872904 -3.440860 -4.401446 -7.554803 -3.769214 0.059246 13.881488 -6.228052 -14.292758 -4.562038 -0.261766 -2.703120 0.000000 0.000000 0.000000 -6.021463 5.253087 4.508785 -60.339211 2.362518 17.980071 -2.185473 -36.379116 -0.017342 4.538198 8.262374 0.330634 -0.080531 0.082111 -0.000000 0.000000 0.000000 0.000000 0.000000 0.000000 0.000000 26.618396 -4.202274 5.292384 65.441333 -6.267601 -0.873556 2.720613 7.713844 -0.001477 2.995007 -7.265333 -0.186926 0.031994 -0.046739 0.000000 0.000000 0.000000 0.000000 0.000000 0.000000 0.000000 
-6.766217 11.905331 1.592329 30.478486 -87.199500 28.516501 1.785426 -3.024578 -5.879255 -0.873713 -3.548965 -4.466899 -7.586135 -3.881884 0.142729 13.964848 -6.325317 -14.448429 -4.585190 -0.263014 -2.752071 0.000000 0.000000 0.000000 -6.266912 5.350107 4.563898 -60.128784 2.670572 18.070354 -2.238540 -35.420343 -0.016301 3.608371 9.635666 0.308296 -0.073981 0.072570 -0.000000 0.000000 0.000000 0.000000 0.000000 0.000000 0.000000 26.837543 -4.376187 5.286305 65.396280 -6.643238 -2.523647 2.626918 6.603484 -0.002316 2.333917 -7.257561 -0.144939 0.033757 -0.045247 0.000000 0.000000 0.000000 0.000000 0.000000 0.000000 0.000000 
-6.900631 11.812277 1.580496 32.236011 -86.854167 27.352250 1.791622 -3.097900 -6.247749 -0.872882 -3.646153 -4.537085 -7.608531 -3.984072 0.208966 14.011744 -6.359906 -14.590962 -4.610757 -0.264532 -2.798705 0.000000 0.000000 0.000000 -6.517604 5.401666 4.633635 -59.912515 2.901850 18.086014 -2.299457 -34.461463 -0.015389 2.611736 11.081310 0.258562 -0.067835 0.064105 -0.000000 0.000000 0.000000 0.000000 0.000000 0.000000 0.000000 27.006566 -4.467414 5.291617 65.390096 -6.916438 -4.096488 2.539231 5.581220 -0.002957 1.765691 -7.236379 -0.108750 0.034972 -0.044146 0.000000 0.000000 0.000000 0.000000 0.000000 0.000000 0.000000 
-7.033682 11.731610 1.568965 33.419152 -86.556091 26.716391 1.804684 -3.153137 -6.601755 -0.869885 -3.724324 -4.609908 -7.620503 -4.067560 0.256415 14.022255 -6.339689 -14.723564 -4.639369 -0.266337 -2.844602 0.000000 0.000000 0.000000 -6.775734 5.406077 4.713277 -59.698877 3.008408 18.016251 -2.367832 -33.387359 -0.014584 1.635079 12.392859 0.183534 -0.062582 0.057860 -0.000000 0.000000 0.000000 0.000000 0.000000 0.000000 0.000000 27.128912 -4.483464 5.311844 65.418741 -7.079546 -5.478543 2.463268 4.666568 -0.003454 1.316405 -7.277377 -0.080959 0.035619 -0.042927 0.000000 0.000000 0.000000 0.000000 0.000000 0.000000 0.000000 
-7.165630 11.663968 1.557673 34.181044 -86.303912 26.451674 1.823958 -3.187494 -6.945748 -0.865124 -3.780775 -4.690375 -7.622288 -4.130107 0.272631 13.986595 -6.210888 -14.825209 -4.677146 -0.269248 -2.883616 0.000000 0.000000 0.000000 -7.030589 5.323986 4.804810 -59.500452 3.021006 17.835979 -2.441430 -32.165539 -0.013868 0.730023 13.479510 0.092814 -0.058394 0.054316 -0.000000 0.000000 0.000000 0.000000 0.000000 0.000000 0.000000 27.205177 -4.368822 5.350606 65.503754 -7.190038 -6.761600 2.398354 3.850660 -0.003805 0.989150 -7.395990 -0.061268 0.035591 -0.041628 0.000000 0.000000 0.000000 0.000000 0.000000 0.000000 0.000000 
-7.296495 11.610449 1.546887 34.552994 -86.100121 26.517857 1.854428 -3.198574 -7.267807 -0.857501 -3.812670 -4.771989 -7.613547 -4.168320 0.269294 13.916851 -6.036238 -14.918689 -4.717773 -0.272415 -2.922738 0.000000 0.000000 0.000000 -7.283418 5.192723 4.902422 -59.307626 2.869699 17.585343 -2.519919 -30.790727 -0.013285 -0.083905 14.357661 -0.003599 -0.055455 0.053365 -0.000000 0.000000 0.000000 0.000000 0.000000 0.000000 0.000000 27.237400 -4.187513 5.406790 65.620111 -7.168875 -7.742662 2.350054 3.133110 -0.004090 0.776036 -7.630148 -0.049176 0.035203 -0.039879 0.000000 0.000000 0.000000 0.000000 0.000000 0.000000 0.000000 
